<svg xmlns="http://www.w3.org/2000/svg" viewBox="0 0 2201 2201"><g id="Objects"><path d="M1235.76,920.29a145.62,145.62,0,0,0,77.78,22.41c79.29,0,143.83-62.75,143.83-139.87S1392.83,663,1313.54,663s-143.81,62.72-143.81,139.83a135.1,135.1,0,0,0,5.39,37.41l-85.23,58.87-135,93.23A146.25,146.25,0,0,0,887.44,976c-79.29,0-143.81,62.73-143.81,139.84s64.52,139.83,143.81,139.83a145.45,145.45,0,0,0,90.32-31.15l112.13,77.43,85.23,58.87a134.59,134.59,0,0,0-5.39,37.37c0,77.11,64.51,139.86,143.81,139.86s143.83-62.75,143.83-139.86-64.54-139.84-143.83-139.84a145.92,145.92,0,0,0-77.86,22.43l-122-84.29-84.39-58.29a131.06,131.06,0,0,0-6.93-70.45l91.32-63.08Zm74.6-197.62c44.66,0,80.92,35.28,80.92,78.78s-36.26,78.82-80.92,78.82-81-35.28-81-78.82S1265.64,722.67,1310.36,722.67Zm-424.57,476.5c-44.73,0-81-35.28-81-78.81s36.23-78.79,81-78.79,80.91,35.28,80.91,78.79S930.47,1199.17,885.79,1199.17Zm424.57,121.26c44.66,0,80.92,35.28,80.92,78.79S1355,1478,1310.36,1478s-81-35.28-81-78.82S1265.64,1320.43,1310.36,1320.43Z" style="fill:#fff"/></g><g id="Layer_3" data-name="Layer 3"><line x1="541.74" y1="440.5" x2="900.5" y2="440.5" style="fill:none;stroke:#fff;stroke-linecap:round;stroke-miterlimit:10;stroke-width:92px"/><line x1="540.5" y1="440.5" x2="540.5" y2="760.5" style="fill:none;stroke:#fff;stroke-linecap:round;stroke-miterlimit:10;stroke-width:92px"/><line x1="1659.26" y1="440.5" x2="1300.5" y2="440.5" style="fill:none;stroke:#fff;stroke-linecap:round;stroke-miterlimit:10;stroke-width:92px"/><line x1="1660.5" y1="440.5" x2="1660.5" y2="760.5" style="fill:none;stroke:#fff;stroke-linecap:round;stroke-miterlimit:10;stroke-width:92px"/><line x1="541.74" y1="1760.5" x2="900.5" y2="1760.5" style="fill:none;stroke:#fff;stroke-linecap:round;stroke-miterlimit:10;stroke-width:92px"/><line x1="540.5" y1="1760.5" x2="540.5" y2="1440.5" style="fill:none;stroke:#fff;stroke-linecap:round;stroke-miterlimit:10;stroke-width:92px"/><line x1="1659.26" y1="1760.5" x2="1300.5" y2="1760.5" style="fill:none;stroke:#fff;stroke-linecap:round;stroke-miterlimit:10;stroke-width:92px"/><line x1="1660.5" y1="1760.5" x2="1660.5" y2="1440.5" style="fill:none;stroke:#fff;stroke-linecap:round;stroke-miterlimit:10;stroke-width:92px"/></g></svg>