<svg xmlns="http://www.w3.org/2000/svg" viewBox="0 0 2201 2201"><g id="Objects"><path d="M1768.51,877.53a122.43,122.43,0,0,0,66.68,19.73c68,0,123.31-55.26,123.31-123.17S1903.17,651,1835.19,651,1711.9,706.19,1711.9,774.09a122,122,0,0,0,4.61,32.94l-73.07,51.85L1527.7,941a122.71,122.71,0,0,0-57.82-14.43c-68,0-123.3,55.24-123.3,123.14s55.32,123.14,123.3,123.14a122.63,122.63,0,0,0,77.43-27.43l96.13,68.18,73.07,51.84a121.62,121.62,0,0,0-4.61,32.91c0,67.91,55.3,123.17,123.29,123.17s123.31-55.26,123.31-123.17-55.33-123.14-123.31-123.14a122.75,122.75,0,0,0-66.76,19.75l-104.6-74.23-72.36-51.33a124,124,0,0,0,1.72-19.69,122.65,122.65,0,0,0-7.66-42.34l78.3-55.56Zm64-174a69.4,69.4,0,1,1-69.42,69.38A69.39,69.39,0,0,1,1832.47,703.5Zm-364,419.62a69.4,69.4,0,1,1,69.37-69.4A69.39,69.39,0,0,1,1468.46,1123.12Zm364,106.78a69.4,69.4,0,1,1-69.42,69.39A69.4,69.4,0,0,1,1832.47,1229.9Z" style="fill:#fff"/></g><g id="Layer_3" data-name="Layer 3"><line x1="744.31" y1="452.44" x2="1019.55" y2="452.44" style="fill:none;stroke:#fff;stroke-linecap:round;stroke-miterlimit:10;stroke-width:64px"/><line x1="743.36" y1="452.44" x2="743.36" y2="735.57" style="fill:none;stroke:#fff;stroke-linecap:round;stroke-miterlimit:10;stroke-width:64px"/><line x1="1452.88" y1="449.5" x2="1177.64" y2="449.5" style="fill:none;stroke:#fff;stroke-linecap:round;stroke-miterlimit:10;stroke-width:64px"/><line x1="1453.83" y1="449.5" x2="1453.83" y2="732.63" style="fill:none;stroke:#fff;stroke-linecap:round;stroke-miterlimit:10;stroke-width:64px"/><line x1="748.12" y1="1748.56" x2="1023.36" y2="1748.56" style="fill:none;stroke:#fff;stroke-linecap:round;stroke-miterlimit:10;stroke-width:64px"/><line x1="747.17" y1="1748.56" x2="747.17" y2="1465.43" style="fill:none;stroke:#fff;stroke-linecap:round;stroke-miterlimit:10;stroke-width:64px"/><line x1="1456.69" y1="1751.5" x2="1181.45" y2="1751.5" style="fill:none;stroke:#fff;stroke-linecap:round;stroke-miterlimit:10;stroke-width:64px"/><line x1="1457.64" y1="1751.5" x2="1457.64" y2="1468.37" style="fill:none;stroke:#fff;stroke-linecap:round;stroke-miterlimit:10;stroke-width:64px"/></g><g id="Layer_4" data-name="Layer 4"><path d="M1423.17,335.45c72.9,0,132,48.64,132,108.64V1756.91c0,60-59.1,108.64-132,108.64H777.83c-72.9,0-132-48.64-132-108.64V444.09c0-60,59.1-108.64,132-108.64h645.34m0-11.12H777.83c-38.86,0-75.4,12.46-102.89,35.08s-42.61,52.69-42.61,84.68V1756.91c0,32,15.13,62.06,42.61,84.68s64,35.08,102.89,35.08h645.34c38.86,0,75.4-12.46,102.89-35.08s42.61-52.69,42.61-84.68V444.09c0-32-15.13-62.06-42.61-84.68s-64-35.08-102.89-35.08Z" style="fill:#fff;stroke:#fff;stroke-miterlimit:10;stroke-width:32px"/></g></svg>