<svg xmlns="http://www.w3.org/2000/svg" viewBox="0 0 2201 2201"><g id="Objects"><path d="M1192.4,926.68a134.15,134.15,0,0,0,73,21.61c74.47,0,135.07-60.53,135.07-134.91S1339.9,678.5,1265.43,678.5s-135,60.5-135,134.88a133.63,133.63,0,0,0,5.06,36.08l-80,56.78L928.63,996.18a134.31,134.31,0,0,0-63.33-15.81c-74.46,0-135,60.5-135,134.88s60.59,134.87,135,134.87a134.35,134.35,0,0,0,84.82-30l105.29,74.68,80,56.79a133.11,133.11,0,0,0-5.06,36c0,74.38,60.57,134.91,135,134.91S1400.5,1462,1400.5,1387.59s-60.6-134.88-135.07-134.88a134.44,134.44,0,0,0-73.11,21.63L1077.74,1193l-79.25-56.22a137,137,0,0,0,1.88-21.57,134.42,134.42,0,0,0-8.39-46.38l85.76-60.86Zm70-190.63a76,76,0,1,1-76,76A76,76,0,0,1,1262.45,736.05Zm-398.7,459.63a76,76,0,1,1,76-76A76,76,0,0,1,863.75,1195.68Zm398.7,117a76,76,0,1,1-76,76A76,76,0,0,1,1262.45,1312.64Z" style="fill:#fff"/></g><g id="Layer_3" data-name="Layer 3"><line x1="744.31" y1="452.44" x2="1019.55" y2="452.44" style="fill:none;stroke:#fff;stroke-linecap:round;stroke-miterlimit:10;stroke-width:64px"/><line x1="743.36" y1="452.44" x2="743.36" y2="735.57" style="fill:none;stroke:#fff;stroke-linecap:round;stroke-miterlimit:10;stroke-width:64px"/><line x1="1452.88" y1="449.5" x2="1177.64" y2="449.5" style="fill:none;stroke:#fff;stroke-linecap:round;stroke-miterlimit:10;stroke-width:64px"/><line x1="1453.83" y1="449.5" x2="1453.83" y2="732.63" style="fill:none;stroke:#fff;stroke-linecap:round;stroke-miterlimit:10;stroke-width:64px"/><line x1="748.12" y1="1748.56" x2="1023.36" y2="1748.56" style="fill:none;stroke:#fff;stroke-linecap:round;stroke-miterlimit:10;stroke-width:64px"/><line x1="747.17" y1="1748.56" x2="747.17" y2="1465.43" style="fill:none;stroke:#fff;stroke-linecap:round;stroke-miterlimit:10;stroke-width:64px"/><line x1="1456.69" y1="1751.5" x2="1181.45" y2="1751.5" style="fill:none;stroke:#fff;stroke-linecap:round;stroke-miterlimit:10;stroke-width:64px"/><line x1="1457.64" y1="1751.5" x2="1457.64" y2="1468.37" style="fill:none;stroke:#fff;stroke-linecap:round;stroke-miterlimit:10;stroke-width:64px"/></g><g id="Layer_4" data-name="Layer 4"><path d="M1423.17,335.45c72.9,0,132,48.64,132,108.64V1756.91c0,60-59.1,108.64-132,108.64H777.83c-72.9,0-132-48.64-132-108.64V444.09c0-60,59.1-108.64,132-108.64h645.34m0-11.12H777.83c-38.86,0-75.4,12.46-102.89,35.08s-42.61,52.69-42.61,84.68V1756.91c0,32,15.13,62.06,42.61,84.68s64,35.08,102.89,35.08h645.34c38.86,0,75.4-12.46,102.89-35.08s42.61-52.69,42.61-84.68V444.09c0-32-15.13-62.06-42.61-84.68s-64-35.08-102.89-35.08Z" style="fill:#fff;stroke:#fff;stroke-miterlimit:10;stroke-width:32px"/></g></svg>